<svg version="1.1" xmlns="http://www.w3.org/2000/svg" xmlns:xlink="http://www.w3.org/1999/xlink" width="131.47629" height="135.53483" viewBox="0,0,131.47629,135.53483"><g transform="translate(-172.34424,-112.84424)"><g data-paper-data="{&quot;isPaintingLayer&quot;:true}" fill="#fff700" fill-rule="nonzero" stroke="none" stroke-width="0.5" stroke-linecap="butt" stroke-linejoin="miter" stroke-miterlimit="10" stroke-dasharray="" stroke-dashoffset="0" style="mix-blend-mode: normal"><path d="M203.82348,239.04611c-5.28914,-1.2486 -11.96644,-2.50869 -16.29891,-6.08297c-7.75758,-6.4 -10.76129,-13.26098 -12.00895,-22.80689c-0.6111,-4.6756 -3.17139,-8.57139 -3.17139,-13.55379c0,-5.87447 0,-12.33045 0,-18.20492c0,-5.91 2.94643,-10.5785 4.10966,-16.07406c3.45853,-16.33959 10.50137,-34.17611 26.54611,-42.19848c6.53546,-3.26773 12.82205,-2.69492 19.74858,-3.125c1.15981,-0.07201 5.75355,-2.60937 6.23963,-2.75822c3.04998,-0.93399 6.39183,-1.2752 9.52266,-1.24178c4.86386,0.05192 9.72745,-0.15576 14.59159,-0.15576c3.90461,0 7.64093,2.0818 11.368,2.15576c4.96736,0.09858 10.05767,0.48253 14.52954,3.125c3.25862,1.92555 6.71586,4.13557 8.59375,7.42188c2.47601,4.33302 3.90625,9.46256 3.90625,14.45313c0,0.63721 -0.02332,1.27669 -0.06915,1.91648c1.43842,1.24737 2.87765,2.52382 4.03229,4.10809c6.4373,8.83258 4.42739,20.65985 6.11619,30.67395c4.08227,24.20679 4.42268,48.40075 -15.1039,65.26461c-3.74107,3.23093 -15.33252,5.96316 -20.97542,6.03686c-16.7148,0.21832 -25.92598,1.71824 -39.90569,-3.28292c-2.01595,-0.72119 -4.15347,-1.6366 -6.32082,-2.70541c-5.056,-0.72599 -10.15174,-1.71482 -15.45,-2.96556z"/></g></g></svg>