<svg version="1.1" xmlns="http://www.w3.org/2000/svg" xmlns:xlink="http://www.w3.org/1999/xlink" width="127.69947" height="131.97497" viewBox="0,0,127.69947,131.97497"><g transform="translate(-179.35383,-113.82074)"><g data-paper-data="{&quot;isPaintingLayer&quot;:true}" fill="#fff700" fill-rule="nonzero" stroke="none" stroke-width="0.5" stroke-linecap="butt" stroke-linejoin="miter" stroke-miterlimit="10" stroke-dasharray="" stroke-dashoffset="0" style="mix-blend-mode: normal"><path d="M281,127.125c3.96113,3.42098 8.36655,6.65077 11.46314,10.89958c16.78213,23.02665 20.0068,60.98327 4.83812,85.84293c-13.30366,21.80313 -46.12303,24.5761 -68.45403,20.1325c-7.58233,-1.5088 -16.06245,-2.87219 -22.32265,-8.03686c-11.14651,-9.19587 -15.51992,-22.40756 -18.73073,-36.02465c-1.69706,-7.19729 -7.03181,-14.69653 -7.90322,-23.03224c-0.65795,-6.29378 -1.03451,-13.26036 0.85115,-19.41804c4.26697,-13.93394 20.63015,-28.07673 34.24643,-32.24643c6.67755,-2.04486 13.86523,-3.07003 20.33145,-5.60246c1.58557,-0.62097 5.80692,-1.22758 7.3857,-2.25986c4.77082,-3.11938 13.07373,-4.39684 18.70089,-2.98884c6.73379,1.6849 15.63296,4.40447 17.72345,12.13928z"/></g></g></svg>